<?xml version="1.0" encoding="UTF-8" standalone="no"?>
<!-- Generator: Adobe Illustrator 16.0.0, SVG Export Plug-In . SVG Version: 6.00 Build 0)  -->

<svg
   xmlns:dc="http://purl.org/dc/elements/1.1/"
   xmlns:cc="http://creativecommons.org/ns#"
   xmlns:rdf="http://www.w3.org/1999/02/22-rdf-syntax-ns#"
   xmlns:svg="http://www.w3.org/2000/svg"
   xmlns="http://www.w3.org/2000/svg"
   xmlns:sodipodi="http://sodipodi.sourceforge.net/DTD/sodipodi-0.dtd"
   xmlns:inkscape="http://www.inkscape.org/namespaces/inkscape"
   version="1.1"
   id="Capa_1"
   x="0px"
   y="0px"
   width="29.999998"
   height="32"
   viewBox="0 0 29.999998 32"
   xml:space="preserve"
   inkscape:version="0.91 r13725"
   sodipodi:docname="rubbish-bin.svg"><metadata
     id="metadata49"><rdf:RDF><cc:Work
         rdf:about=""><dc:format>image/svg+xml</dc:format><dc:type
           rdf:resource="http://purl.org/dc/dcmitype/StillImage" /><dc:title></dc:title></cc:Work></rdf:RDF></metadata><defs
     id="defs47" /><sodipodi:namedview
     pagecolor="#ffffff"
     bordercolor="#666666"
     borderopacity="1"
     objecttolerance="10"
     gridtolerance="10"
     guidetolerance="10"
     inkscape:pageopacity="0"
     inkscape:pageshadow="2"
     inkscape:window-width="1432"
     inkscape:window-height="991"
     id="namedview45"
     showgrid="false"
     fit-margin-top="0"
     fit-margin-left="0"
     fit-margin-right="0"
     fit-margin-bottom="0"
     inkscape:zoom="2.4384385"
     inkscape:cx="8.5695893"
     inkscape:cy="42.447241"
     inkscape:window-x="0"
     inkscape:window-y="24"
     inkscape:window-maximized="0"
     inkscape:current-layer="Capa_1" /><path
     d="m 27.41262,3.76796 -5.0676,0 0,-2.77643 C 22.34502,0.43268 21.81037,0 21.14757,0 21.08327,0 21.04037,0.0181 21.01943,0.0362 20.99793,0.0181 20.95503,0 20.93363,0 L 9.023482,0 8.938192,0 8.852402,0 C 8.189608,0 7.676422,0.43268 7.676422,0.99153 l 0,2.77647 -5.08902,0 C 1.133137,3.768 0,4.72337 0,5.94949 l 0,1.58651 0,1.98303 2.245245,0 0,20.31754 C 2.245245,31.06273 3.356961,32 4.811226,32 l 20.377604,0 c 1.45426,0 2.58735,-0.93727 2.58735,-2.16343 l 0,-20.31754 2.22382,0 L 30,7.536 30,5.94949 C 30,4.72337 28.86642,3.76796 27.4126,3.76796 Z m -17.384167,-1.78493 9.943137,0 0,1.78493 -9.943137,0 0,-1.78493 z M 25.40277,29.83661 c 0,0.12651 -0.0643,0.18032 -0.21392,0.18032 l -20.377603,0 c -0.149608,0 -0.213922,-0.0539 -0.213922,-0.18032 l 0,-20.31762 20.805445,0 0,20.31762 z m 2.22382,-22.30065 -25.253138,0 0,-1.58651 c 0,-0.12618 0.06431,-0.19846 0.213922,-0.19846 l 24.825246,0 c 0.14966,0 0.21397,0.0723 0.21397,0.19846 l 0,1.58651 z"
     id="path7"
     inkscape:connector-curvature="0"
     style="fill:#ffffff" /><rect
     x="19.308746"
     y="11.844694"
     width="2.3734314"
     height="16.405378"
     id="rect9"
     style="fill:#ffffff" /><rect
     x="13.834724"
     y="11.844694"
     width="2.3734314"
     height="16.405378"
     id="rect11"
     style="fill:#ffffff" /><rect
     x="8.3606567"
     y="11.844694"
     width="2.3734314"
     height="16.405378"
     id="rect13"
     style="fill:#ffffff" /><g
     id="g15"
     transform="translate(-81.13298,-742.267)" /><g
     id="g17"
     transform="translate(-81.13298,-742.267)" /><g
     id="g19"
     transform="translate(-81.13298,-742.267)" /><g
     id="g21"
     transform="translate(-81.13298,-742.267)" /><g
     id="g23"
     transform="translate(-81.13298,-742.267)" /><g
     id="g25"
     transform="translate(-81.13298,-742.267)" /><g
     id="g27"
     transform="translate(-81.13298,-742.267)" /><g
     id="g29"
     transform="translate(-81.13298,-742.267)" /><g
     id="g31"
     transform="translate(-81.13298,-742.267)" /><g
     id="g33"
     transform="translate(-81.13298,-742.267)" /><g
     id="g35"
     transform="translate(-81.13298,-742.267)" /><g
     id="g37"
     transform="translate(-81.13298,-742.267)" /><g
     id="g39"
     transform="translate(-81.13298,-742.267)" /><g
     id="g41"
     transform="translate(-81.13298,-742.267)" /><g
     id="g43"
     transform="translate(-81.13298,-742.267)" /></svg>